<svg width="32" height="32" viewBox="0 0 32 32" fill="none" xmlns="http://www.w3.org/2000/svg">
<path fill-rule="evenodd" clip-rule="evenodd" d="M12.6667 16.737C16.3395 16.737 19.2835 13.7548 19.2835 10.0345C19.2835 6.3142 16.3395 3.33203 12.6667 3.33203C8.99399 3.33203 6.04991 6.3142 6.04991 10.0345C6.04991 13.7548 8.99399 16.737 12.6667 16.737ZM12.6667 20.019C7.27237 20.019 2.66675 20.8815 2.66675 24.3272C2.66675 27.7718 7.24435 28.6654 12.6667 28.6654C18.0598 28.6654 22.6667 27.8028 22.6667 24.357C22.6667 20.9112 18.0891 20.019 12.6667 20.019ZM26.5306 12.7825H28.1347C28.795 12.7825 29.3334 13.3284 29.3334 13.998C29.3334 14.6675 28.795 15.2135 28.1347 15.2135H26.5306V16.7832C26.5306 17.4528 25.9937 17.9987 25.3321 17.9987C24.6718 17.9987 24.1334 17.4528 24.1334 16.7832V15.2135H22.5321C21.8703 15.2135 21.3334 14.6675 21.3334 13.998C21.3334 13.3284 21.8703 12.7825 22.5321 12.7825H24.1334V11.2142C24.1334 10.5446 24.6718 9.9987 25.3321 9.9987C25.9937 9.9987 26.5306 10.5446 26.5306 11.2142V12.7825Z" fill="white"/>
</svg>
